<svg xmlns="http://www.w3.org/2000/svg" xmlns:xlink="http://www.w3.org/1999/xlink" width="500" zoomAndPan="magnify" viewBox="0 0 375 374.999991" height="500" preserveAspectRatio="xMidYMid meet" version="1.0"><defs><clipPath id="492368bde2"><path d="M 37.5 37.5 L 331.5 37.5 L 331.5 337.5 L 37.5 337.5 Z M 37.5 37.5 " clip-rule="nonzero"/></clipPath><clipPath id="1f934edaa8"><path d="M 75 141 L 294 141 L 294 244.351562 L 75 244.351562 Z M 75 141 " clip-rule="nonzero"/></clipPath><clipPath id="6d49c328c8"><path d="M 161 266 L 219 266 L 219 305 L 161 305 Z M 161 266 " clip-rule="nonzero"/></clipPath><clipPath id="4aba706c74"><path d="M 195.699219 313.636719 L 150.734375 289.570312 L 174.800781 244.605469 L 219.765625 268.675781 Z M 195.699219 313.636719 " clip-rule="nonzero"/></clipPath><clipPath id="638c7457f0"><path d="M 195.699219 313.636719 L 150.734375 289.570312 L 174.800781 244.605469 L 219.765625 268.675781 Z M 195.699219 313.636719 " clip-rule="nonzero"/></clipPath></defs><g clip-path="url(#492368bde2)"><path fill="#4bae4c" d="M 303.097656 109.910156 L 259.339844 109.910156 C 257.902344 69.765625 224.945312 37.660156 184.5 37.660156 C 144.054688 37.660156 111.097656 69.757812 109.660156 109.910156 L 65.902344 109.910156 C 50.226562 109.910156 37.507812 122.640625 37.507812 138.339844 L 64.761719 308.933594 C 64.761719 324.632812 77.476562 337.367188 93.15625 337.367188 L 277.382812 337.367188 C 293.0625 337.367188 305.777344 324.632812 305.777344 308.933594 L 331.492188 138.339844 C 331.492188 122.640625 318.785156 109.910156 303.097656 109.910156 Z M 184.5 66.78125 C 208.878906 66.78125 228.804688 85.851562 230.230469 109.910156 L 138.769531 109.910156 C 140.195312 85.851562 160.121094 66.78125 184.5 66.78125 Z M 184.5 66.78125 " fill-opacity="1" fill-rule="nonzero"/></g><g clip-path="url(#1f934edaa8)"><path fill="#4bae4c" d="M 180.066406 171.8125 C 184.449219 184.816406 185.269531 198.035156 180.765625 211.046875 C 174.632812 228.773438 162.332031 239.941406 143.1875 242.882812 C 139.261719 243.484375 135.277344 243.675781 132.300781 243.960938 C 121.3125 244.335938 111.578125 243.023438 102.367188 239.050781 C 84.796875 231.46875 76.117188 217.804688 75.167969 199.195312 C 74.046875 177.203125 87.917969 154.136719 110.007812 145.789062 C 124.328125 140.378906 138.808594 139.890625 153.300781 144.898438 C 166.613281 149.503906 175.59375 158.539062 180.066406 171.8125 Z M 293.167969 185.277344 C 292.066406 175.75 288.875 166.902344 282.066406 159.851562 C 266.394531 143.621094 247.199219 139.375 226 145.964844 C 205.503906 152.339844 194.015625 167.324219 190.046875 187.820312 C 185.960938 208.964844 194.101562 225.464844 213.023438 236.078125 C 222.101562 241.164062 231.898438 243.160156 242.238281 243.152344 C 247.746094 243.089844 253.21875 242.777344 258.503906 240.832031 C 281.90625 232.199219 296 209.769531 293.167969 185.277344 Z M 293.167969 185.277344 " fill-opacity="1" fill-rule="nonzero"/></g><path fill="#ededed" d="M 180.3125 195.039062 C 180.152344 199.164062 179.527344 203.296875 178.398438 207.421875 C 173.992188 223.488281 163.507812 234.144531 147.242188 238.550781 C 141.257812 240.171875 134.835938 240.242188 128.609375 241.011719 C 121.007812 240.863281 113.75 239.433594 106.703125 236.902344 C 92.101562 231.667969 83.292969 221.753906 80.058594 207.667969 C 83.925781 214.503906 90.195312 220.171875 96.292969 225.234375 C 109.800781 236.425781 127.226562 237.5 143.773438 234.917969 C 164.441406 231.316406 174.007812 212.773438 180.3125 195.039062 Z M 289.050781 201.773438 C 283.386719 214.6875 274.238281 226.085938 260.730469 231.253906 C 252.019531 234.695312 243.089844 235.125 233.941406 233.191406 C 214.273438 228.78125 197.054688 215.238281 192.664062 196.191406 C 192.117188 209.847656 197.546875 221.007812 208.960938 229.488281 C 218.761719 236.769531 229.824219 240.203125 241.304688 239.804688 C 247.25 239.988281 252.363281 239.613281 257.222656 237.707031 C 274.617188 230.863281 285.605469 218.925781 289.128906 201.589844 C 289.105469 201.644531 289.082031 201.707031 289.050781 201.773438 Z M 289.050781 201.773438 " fill-opacity="1" fill-rule="nonzero"/><path fill="#ffffff" d="M 96.285156 225.226562 C 109.792969 236.417969 127.21875 237.492188 143.765625 234.910156 C 164.433594 231.316406 174.007812 212.765625 180.3125 195.03125 C 180.597656 187.75 179.421875 180.492188 176.976562 173.332031 C 172.710938 160.828125 164.242188 152.410156 151.601562 148.214844 C 137.386719 143.492188 123.265625 144.105469 109.542969 149.980469 C 89.429688 158.585938 76.398438 181.066406 79.140625 202.542969 C 79.367188 204.308594 79.671875 206.015625 80.050781 207.660156 C 83.917969 214.496094 90.1875 220.164062 96.285156 225.226562 Z M 108.957031 202.480469 C 118.988281 199.378906 129.042969 196.351562 139.082031 193.289062 C 141.394531 192.589844 143.695312 191.859375 146.6875 190.921875 C 145.328125 190.230469 144.554688 189.730469 143.71875 189.425781 C 133.71875 185.835938 123.703125 182.289062 113.710938 178.671875 C 111.867188 178.003906 109.71875 177.742188 108.207031 175.335938 C 109.347656 175.082031 110.144531 174.652344 110.828125 174.792969 C 112.953125 175.246094 115.078125 175.796875 117.121094 176.511719 C 127.394531 180.089844 137.652344 183.710938 147.894531 187.386719 C 149.195312 187.855469 150.476562 188.5625 151.5625 189.410156 C 152.847656 190.421875 152.679688 191.621094 151.238281 192.449219 C 150.363281 192.949219 149.363281 193.265625 148.390625 193.578125 C 135.214844 197.78125 122.035156 201.976562 108.84375 206.144531 C 107.433594 206.589844 105.898438 207.335938 104.296875 205.578125 C 105.15625 203.304688 107.195312 203.019531 108.957031 202.480469 Z M 233.941406 233.191406 C 243.089844 235.132812 252.019531 234.703125 260.730469 231.253906 C 274.238281 226.085938 283.386719 214.679688 289.050781 201.773438 C 289.074219 201.707031 289.105469 201.652344 289.128906 201.589844 C 289.507812 199.746094 289.796875 197.835938 290 195.867188 C 291.285156 183.433594 288.1875 171.878906 279.636719 162.234375 C 263.507812 144.042969 233.058594 141.292969 213.074219 156.257812 C 200.667969 165.550781 194.351562 178.210938 192.863281 193.324219 C 192.769531 194.292969 192.703125 195.253906 192.664062 196.207031 C 197.0625 215.238281 214.273438 228.78125 233.941406 233.191406 Z M 218.566406 192.195312 C 219.042969 191.78125 219.636719 191.484375 220.210938 191.214844 C 231.34375 186.019531 242.484375 180.84375 254.289062 177.242188 C 255.261719 176.949219 256.265625 176.726562 257.273438 176.566406 C 257.609375 176.511719 257.988281 176.757812 258.632812 176.949219 C 258.464844 179.09375 256.820312 179.269531 255.640625 179.769531 C 249.035156 182.566406 242.398438 185.261719 235.785156 188.035156 C 231.464844 189.847656 227.183594 191.75 222.066406 193.957031 C 224.03125 194.691406 225.148438 195.167969 226.300781 195.515625 C 235.480469 198.347656 244.664062 201.152344 253.84375 203.972656 C 254.9375 204.316406 256.074219 204.625 257.0625 205.171875 C 257.464844 205.394531 257.828125 206.300781 257.683594 206.714844 C 257.53125 207.136719 256.757812 207.519531 256.21875 207.574219 C 255.625 207.636719 254.980469 207.34375 254.367188 207.160156 C 243.804688 204.019531 233.25 200.890625 222.695312 197.726562 C 221.472656 197.359375 220.257812 196.90625 219.113281 196.34375 C 217.015625 195.308594 216.824219 193.703125 218.566406 192.195312 Z M 218.566406 192.195312 " fill-opacity="1" fill-rule="nonzero"/><g clip-path="url(#6d49c328c8)"><g clip-path="url(#4aba706c74)"><g clip-path="url(#638c7457f0)"><path fill="#ffffff" d="M 176.96875 302.636719 C 170.925781 289.695312 166.390625 280.308594 163.378906 274.847656 C 162.671875 273.566406 160.949219 270.507812 162.164062 268.617188 C 163.15625 267.066406 165.671875 266.996094 167 267.054688 C 176.449219 266.902344 184.6875 266.835938 191.410156 266.808594 C 209.230469 266.734375 217.457031 267.4375 218.003906 270.328125 C 218.230469 271.523438 217.011719 272.839844 215.796875 273.851562 C 209.824219 278.359375 205.1875 282.304688 202.039062 285.09375 C 195.535156 290.851562 192.277344 293.722656 190.804688 295.253906 C 185.578125 300.695312 182.277344 305.292969 179.226562 304.515625 C 178.136719 304.238281 177.414062 303.355469 176.96875 302.636719 Z M 176.96875 302.636719 " fill-opacity="1" fill-rule="nonzero"/></g></g></g></svg>