<svg xmlns="http://www.w3.org/2000/svg" xmlns:xlink="http://www.w3.org/1999/xlink" width="6912" zoomAndPan="magnify" viewBox="0 0 5184 1439.999935" height="1920" preserveAspectRatio="xMidYMid meet" version="1.0"><defs><g/><clipPath id="4003e72320"><path d="M 126.175781 0 L 1539.371094 0 L 1539.371094 1440 L 126.175781 1440 Z M 126.175781 0 " clip-rule="nonzero"/></clipPath><clipPath id="8549f9eea9"><path d="M 718 1103 L 991 1103 L 991 1282 L 718 1282 Z M 718 1103 " clip-rule="nonzero"/></clipPath><clipPath id="84aae5cc27"><path d="M 885.683594 1325.714844 L 666.894531 1208.609375 L 779.777344 997.707031 L 998.570312 1114.8125 Z M 885.683594 1325.714844 " clip-rule="nonzero"/></clipPath><clipPath id="0137545ed8"><path d="M 885.683594 1325.714844 L 666.894531 1208.609375 L 779.777344 997.707031 L 998.570312 1114.8125 Z M 885.683594 1325.714844 " clip-rule="nonzero"/></clipPath></defs><g clip-path="url(#4003e72320)"><path fill="#4bae4c" d="M 1402.839844 347.574219 L 1192.519531 347.574219 C 1185.597656 154.882812 1027.1875 0.765625 832.773438 0.765625 C 638.359375 0.765625 479.949219 154.84375 473.023438 347.574219 L 262.707031 347.574219 C 187.339844 347.574219 126.214844 408.695312 126.214844 484.054688 L 257.207031 1302.917969 C 257.207031 1378.277344 318.332031 1439.394531 393.699219 1439.394531 L 1279.242188 1439.394531 C 1354.613281 1439.394531 1415.738281 1378.277344 1415.738281 1302.917969 L 1539.332031 484.054688 C 1539.332031 408.695312 1478.246094 347.574219 1402.839844 347.574219 Z M 832.773438 140.5625 C 949.960938 140.5625 1045.742188 232.101562 1052.585938 347.574219 L 612.960938 347.574219 C 619.804688 232.101562 715.585938 140.5625 832.773438 140.5625 Z M 832.773438 140.5625 " fill-opacity="1" fill-rule="nonzero"/></g><path fill="#4bae4c" d="M 808.972656 646.203125 C 829.957031 709.222656 833.882812 773.28125 812.320312 836.335938 C 782.980469 922.238281 724.109375 976.355469 632.46875 990.609375 C 613.679688 993.535156 594.621094 994.460938 580.375 995.847656 C 527.777344 997.660156 481.1875 991.304688 437.101562 972.042969 C 353.007812 935.296875 311.460938 869.078125 306.917969 778.90625 C 301.566406 672.320312 367.945312 560.535156 473.679688 520.089844 C 542.214844 493.859375 611.523438 491.507812 680.867188 515.777344 C 744.59375 538.078125 787.5625 581.875 808.972656 646.203125 Z M 1350.296875 711.457031 C 1345.023438 665.269531 1329.738281 622.398438 1297.164062 588.230469 C 1222.15625 509.574219 1130.289062 489.003906 1028.828125 520.9375 C 930.722656 551.832031 875.738281 624.441406 856.753906 723.78125 C 837.195312 826.246094 876.160156 906.210938 966.722656 957.636719 C 1010.15625 982.289062 1057.050781 991.957031 1106.53125 991.917969 C 1132.90625 991.609375 1159.089844 990.109375 1184.386719 980.671875 C 1296.394531 938.839844 1363.851562 830.136719 1350.296875 711.457031 Z M 1350.296875 711.457031 " fill-opacity="1" fill-rule="nonzero"/><path fill="#ededed" d="M 810.164062 758.757812 C 809.394531 778.75 806.390625 798.78125 801 818.773438 C 779.902344 896.621094 729.730469 948.277344 651.875 969.617188 C 623.226562 977.472656 592.503906 977.820312 562.699219 981.558594 C 526.3125 980.824219 491.582031 973.890625 457.855469 961.644531 C 387.96875 936.257812 345.808594 888.222656 330.328125 819.96875 C 348.847656 853.09375 378.84375 880.558594 408.03125 905.09375 C 472.679688 959.332031 556.078125 964.53125 635.28125 952.011719 C 734.195312 934.5625 779.976562 844.695312 810.164062 758.757812 Z M 1330.585938 791.386719 C 1303.476562 853.980469 1259.699219 909.21875 1195.050781 934.253906 C 1153.351562 950.933594 1110.613281 953.015625 1066.832031 943.652344 C 972.691406 922.277344 890.292969 856.636719 869.269531 764.34375 C 866.652344 830.519531 892.640625 884.601562 947.277344 925.703125 C 994.175781 960.988281 1047.117188 977.628906 1102.0625 975.703125 C 1130.519531 976.589844 1155.007812 974.777344 1178.261719 965.53125 C 1261.507812 932.367188 1314.105469 874.511719 1330.96875 790.5 C 1330.855469 790.769531 1330.738281 791.078125 1330.585938 791.386719 Z M 1330.585938 791.386719 " fill-opacity="1" fill-rule="nonzero"/><path fill="#ffffff" d="M 407.992188 905.058594 C 472.640625 959.292969 556.039062 964.492188 635.242188 951.972656 C 734.160156 934.5625 779.976562 844.65625 810.164062 758.71875 C 811.511719 723.4375 805.890625 688.269531 794.1875 653.5625 C 773.777344 592.96875 733.234375 552.175781 672.746094 531.839844 C 604.707031 508.957031 537.132812 511.925781 471.445312 540.390625 C 375.1875 582.105469 312.808594 691.042969 325.9375 795.121094 C 327.015625 803.671875 328.480469 811.953125 330.289062 819.929688 C 348.8125 853.054688 378.804688 880.519531 407.992188 905.058594 Z M 468.636719 794.8125 C 516.648438 779.789062 564.78125 765.113281 612.832031 750.285156 C 623.882812 746.894531 634.894531 743.351562 649.21875 738.804688 C 642.710938 735.453125 639.015625 733.027344 635.011719 731.5625 C 587.148438 714.152344 539.210938 696.972656 491.390625 679.445312 C 482.574219 676.210938 472.292969 674.941406 465.054688 663.269531 C 470.523438 662.035156 474.332031 659.957031 477.605469 660.648438 C 487.769531 662.84375 497.9375 665.503906 507.714844 668.96875 C 556.886719 686.304688 605.980469 703.867188 654.996094 721.664062 C 661.230469 723.9375 667.355469 727.367188 672.550781 731.488281 C 678.710938 736.378906 677.902344 742.195312 671.011719 746.203125 C 666.816406 748.628906 662.039062 750.167969 657.382812 751.671875 C 594.3125 772.046875 531.242188 792.386719 468.097656 812.570312 C 461.359375 814.726562 454.003906 818.347656 446.339844 809.835938 C 450.460938 798.820312 460.203125 797.433594 468.636719 794.8125 Z M 1066.832031 943.652344 C 1110.613281 953.050781 1153.351562 950.972656 1195.050781 934.253906 C 1259.699219 909.21875 1303.476562 853.941406 1330.585938 791.386719 C 1330.699219 791.078125 1330.855469 790.808594 1330.96875 790.5 C 1332.78125 781.5625 1334.164062 772.316406 1335.128906 762.765625 C 1341.289062 702.519531 1326.464844 646.511719 1285.535156 599.789062 C 1208.335938 511.617188 1062.597656 498.289062 966.953125 570.820312 C 907.582031 615.851562 877.355469 677.210938 870.230469 750.4375 C 869.769531 755.136719 869.460938 759.800781 869.269531 764.421875 C 890.332031 856.636719 972.691406 922.277344 1066.832031 943.652344 Z M 993.25 744.96875 C 995.523438 742.964844 998.371094 741.539062 1001.105469 740.230469 C 1054.394531 715.039062 1107.722656 689.960938 1164.210938 672.511719 C 1168.867188 671.085938 1173.679688 670.007812 1178.492188 669.238281 C 1180.109375 668.96875 1181.921875 670.164062 1185 671.085938 C 1184.191406 681.488281 1176.335938 682.335938 1170.679688 684.761719 C 1139.066406 698.320312 1107.300781 711.378906 1075.648438 724.824219 C 1054.972656 733.605469 1034.488281 742.8125 1010 753.519531 C 1019.394531 757.0625 1024.746094 759.375 1030.253906 761.070312 C 1074.1875 774.78125 1118.160156 788.378906 1162.089844 802.054688 C 1167.328125 803.710938 1172.757812 805.214844 1177.492188 807.871094 C 1179.417969 808.949219 1181.152344 813.339844 1180.457031 815.34375 C 1179.726562 817.386719 1176.03125 819.234375 1173.449219 819.503906 C 1170.601562 819.8125 1167.519531 818.386719 1164.59375 817.5 C 1114.039062 802.285156 1063.519531 787.109375 1013.003906 771.777344 C 1007.152344 770.007812 1001.335938 767.8125 995.871094 765.074219 C 985.820312 760.070312 984.894531 752.289062 993.25 744.96875 Z M 993.25 744.96875 " fill-opacity="1" fill-rule="nonzero"/><g clip-path="url(#8549f9eea9)"><g clip-path="url(#84aae5cc27)"><g clip-path="url(#0137545ed8)"><path fill="#ffffff" d="M 794.472656 1272.316406 C 764.359375 1210.675781 741.785156 1165.941406 726.851562 1139.902344 C 723.347656 1133.792969 714.808594 1119.195312 720.527344 1110.335938 C 725.210938 1103.085938 737.34375 1102.929688 743.757812 1103.300781 C 789.347656 1103.269531 829.113281 1103.554688 861.5625 1103.917969 C 947.566406 1104.878906 987.34375 1108.808594 990.1875 1122.511719 C 991.363281 1128.171875 985.578125 1134.308594 979.78125 1139.015625 C 951.285156 1159.890625 929.1875 1178.21875 914.199219 1191.171875 C 883.238281 1217.925781 867.71875 1231.265625 860.726562 1238.410156 C 835.890625 1263.765625 820.300781 1285.269531 805.515625 1281.367188 C 800.226562 1279.96875 796.679688 1275.753906 794.472656 1272.316406 Z M 794.472656 1272.316406 " fill-opacity="1" fill-rule="nonzero"/></g></g></g><g fill="#42b548" fill-opacity="1"><g transform="translate(1725.596587, 1114.486289)"><g><path d="M 56.5625 -140.96875 L 56.5625 -536.90625 L 140.96875 -536.90625 L 140.96875 -430.96875 L 304.375 -430.96875 L 304.375 -353.75 L 140.96875 -353.75 L 140.96875 -134.671875 C 140.96875 -126.296875 141.5625 -118.816406 142.75 -112.234375 C 143.945312 -105.648438 145.742188 -99.363281 148.140625 -93.375 C 150.535156 -87.382812 155.773438 -83.039062 163.859375 -80.34375 C 171.941406 -77.65625 183.164062 -76.3125 197.53125 -76.3125 L 297.1875 -78.109375 L 297.1875 0 L 191.234375 0 C 190.640625 0 190.039062 0 189.4375 0 C 188.84375 0 188.25 0 187.65625 0 C 187.050781 0 186.597656 0 186.296875 0 C 186.003906 0 185.554688 0.296875 184.953125 0.890625 C 184.359375 0.890625 183.757812 0.890625 183.15625 0.890625 C 182.5625 0.890625 181.960938 0.890625 181.359375 0.890625 C 180.765625 0.890625 180.316406 0.890625 180.015625 0.890625 C 179.710938 0.890625 179.265625 0.890625 178.671875 0.890625 C 158.316406 0.890625 140.65625 -2.097656 125.6875 -8.078125 C 110.726562 -14.066406 98.460938 -23.34375 88.890625 -35.90625 C 79.304688 -48.476562 71.96875 -61.945312 66.875 -76.3125 C 61.789062 -90.675781 58.65625 -105.640625 57.46875 -121.203125 C 56.863281 -122.398438 56.5625 -123.75 56.5625 -125.25 C 56.5625 -126.75 56.5625 -128.394531 56.5625 -130.1875 C 56.5625 -131.382812 56.5625 -132.726562 56.5625 -134.21875 C 56.5625 -135.71875 56.5625 -137.367188 56.5625 -139.171875 Z M 56.5625 -140.96875 "/></g></g></g><g fill="#42b548" fill-opacity="1"><g transform="translate(2022.764613, 1114.486289)"><g><path d="M 27.828125 -226.25 C 27.828125 -259.175781 33.515625 -288.804688 44.890625 -315.140625 C 56.265625 -341.472656 73.023438 -364.519531 95.171875 -384.28125 C 117.921875 -404.03125 142.015625 -418.84375 167.453125 -428.71875 C 192.890625 -438.59375 219.675781 -443.53125 247.8125 -443.53125 C 249 -443.53125 250.34375 -443.53125 251.84375 -443.53125 C 253.34375 -443.53125 254.691406 -443.53125 255.890625 -443.53125 C 257.085938 -442.9375 258.429688 -442.640625 259.921875 -442.640625 C 261.421875 -442.640625 263.066406 -442.640625 264.859375 -442.640625 C 266.054688 -442.640625 267.40625 -442.640625 268.90625 -442.640625 C 270.40625 -442.640625 272.050781 -442.640625 273.84375 -442.640625 C 275.039062 -442.035156 276.382812 -441.734375 277.875 -441.734375 C 279.375 -441.734375 280.722656 -441.734375 281.921875 -441.734375 C 305.867188 -438.148438 328.765625 -431.117188 350.609375 -420.640625 C 372.453125 -410.160156 393.550781 -396.242188 413.90625 -378.890625 C 433.65625 -360.929688 448.617188 -338.484375 458.796875 -311.546875 C 468.972656 -284.617188 474.0625 -253.195312 474.0625 -217.28125 C 474.0625 -214.882812 474.0625 -212.488281 474.0625 -210.09375 C 474.0625 -207.695312 473.757812 -205.601562 473.15625 -203.8125 C 473.15625 -201.414062 473.003906 -199.019531 472.703125 -196.625 C 472.410156 -194.226562 472.265625 -191.832031 472.265625 -189.4375 C 471.671875 -184.65625 470.921875 -179.867188 470.015625 -175.078125 C 469.117188 -170.285156 468.070312 -165.5 466.875 -160.71875 C 461.488281 -139.164062 453.257812 -118.660156 442.1875 -99.203125 C 431.113281 -79.753906 416.898438 -61.351562 399.546875 -44 C 382.785156 -26.632812 362.734375 -13.757812 339.390625 -5.375 C 316.046875 3 290.003906 7.1875 261.265625 7.1875 C 220.566406 7.1875 185.398438 1.648438 155.765625 -9.421875 C 126.140625 -20.492188 102.050781 -37.40625 83.5 -60.15625 C 64.945312 -82.90625 51.03125 -108.046875 41.75 -135.578125 C 32.46875 -163.109375 27.828125 -192.738281 27.828125 -224.46875 Z M 113.125 -226.25 C 113.125 -221.46875 113.125 -217.128906 113.125 -213.234375 C 113.125 -209.347656 113.425781 -205.304688 114.03125 -201.109375 C 114.625 -196.921875 115.367188 -192.878906 116.265625 -188.984375 C 117.171875 -185.097656 117.921875 -181.0625 118.515625 -176.875 C 121.503906 -163.707031 126.289062 -150.835938 132.875 -138.265625 C 139.457031 -125.691406 147.539062 -113.722656 157.125 -102.359375 C 167.300781 -90.984375 179.867188 -82.601562 194.828125 -77.21875 C 209.796875 -71.832031 227.457031 -69.140625 247.8125 -69.140625 C 266.957031 -69.140625 284.910156 -71.832031 301.671875 -77.21875 C 318.429688 -82.601562 333.695312 -90.679688 347.46875 -101.453125 C 361.226562 -112.234375 371.550781 -127.945312 378.4375 -148.59375 C 385.320312 -169.238281 388.765625 -194.53125 388.765625 -224.46875 C 388.765625 -245.414062 385.769531 -264.414062 379.78125 -281.46875 C 373.800781 -298.53125 364.828125 -313.644531 352.859375 -326.8125 C 340.878906 -339.382812 326.0625 -348.960938 308.40625 -355.546875 C 290.75 -362.128906 270.550781 -365.421875 247.8125 -365.421875 C 226.257812 -365.421875 207.703125 -362.578125 192.140625 -356.890625 C 176.578125 -351.203125 163.707031 -342.375 153.53125 -330.40625 C 143.351562 -319.03125 135.117188 -306.757812 128.828125 -293.59375 C 122.546875 -280.425781 118.210938 -266.957031 115.828125 -253.1875 C 115.222656 -250.789062 114.617188 -248.394531 114.015625 -246 C 113.421875 -243.613281 113.125 -241.222656 113.125 -238.828125 C 113.125 -236.429688 113.125 -234.035156 113.125 -231.640625 C 113.125 -229.242188 113.125 -226.851562 113.125 -224.46875 Z M 113.125 -226.25 "/></g></g></g><g fill="#42b548" fill-opacity="1"><g transform="translate(2524.628503, 1114.486289)"><g><path d="M 42.203125 -629.390625 L 120.3125 -629.390625 L 120.3125 -275.640625 L 162.515625 -275.640625 C 167.898438 -274.441406 173.285156 -274.289062 178.671875 -275.1875 C 184.054688 -276.082031 188.84375 -277.429688 193.03125 -279.234375 C 197.820312 -281.023438 202.460938 -283.566406 206.953125 -286.859375 C 211.441406 -290.148438 215.78125 -294.488281 219.96875 -299.875 C 221.769531 -302.875 223.863281 -305.867188 226.25 -308.859375 C 228.644531 -311.847656 231.039062 -315.140625 233.4375 -318.734375 C 235.832031 -322.328125 238.226562 -326.367188 240.625 -330.859375 C 243.019531 -335.347656 245.414062 -339.984375 247.8125 -344.765625 L 297.1875 -430.96875 L 388.765625 -430.96875 C 388.171875 -428.570312 387.421875 -426.472656 386.515625 -424.671875 C 385.617188 -422.878906 384.875 -421.382812 384.28125 -420.1875 C 383.082031 -418.394531 382.179688 -416.75 381.578125 -415.25 C 380.984375 -413.757812 380.085938 -412.414062 378.890625 -411.21875 C 378.296875 -409.414062 377.546875 -407.765625 376.640625 -406.265625 C 375.742188 -404.773438 375 -403.429688 374.40625 -402.234375 C 373.207031 -400.441406 372.304688 -398.796875 371.703125 -397.296875 C 371.109375 -395.796875 370.210938 -394.445312 369.015625 -393.25 C 366.617188 -389.0625 364.375 -385.019531 362.28125 -381.125 C 360.1875 -377.238281 357.941406 -373.5 355.546875 -369.90625 C 353.148438 -365.71875 350.90625 -361.828125 348.8125 -358.234375 C 346.71875 -354.648438 344.769531 -351.0625 342.96875 -347.46875 C 335.789062 -334.894531 328.609375 -323.21875 321.421875 -312.4375 C 314.242188 -301.664062 307.0625 -291.796875 299.875 -282.828125 C 292.695312 -273.847656 285.960938 -266.8125 279.671875 -261.71875 C 273.390625 -256.632812 267.253906 -253.492188 261.265625 -252.296875 C 276.828125 -250.492188 290.59375 -246.898438 302.5625 -241.515625 C 314.539062 -236.128906 324.421875 -228.648438 332.203125 -219.078125 C 339.984375 -209.492188 346.117188 -199.460938 350.609375 -188.984375 C 355.097656 -178.515625 358.238281 -167.59375 360.03125 -156.21875 C 360.03125 -154.425781 360.03125 -152.78125 360.03125 -151.28125 C 360.03125 -149.789062 360.03125 -148.445312 360.03125 -147.25 C 360.03125 -146.644531 360.03125 -146.039062 360.03125 -145.4375 C 360.03125 -144.84375 360.332031 -144.25 360.9375 -143.65625 C 360.9375 -142.457031 360.9375 -141.554688 360.9375 -140.953125 C 360.9375 -140.359375 360.9375 -139.765625 360.9375 -139.171875 L 360.9375 0 L 282.828125 0 L 282.828125 -113.125 C 282.828125 -124.5 281.175781 -135.125 277.875 -145 C 274.582031 -154.875 269.644531 -163.703125 263.0625 -171.484375 C 257.082031 -179.867188 247.957031 -186.003906 235.6875 -189.890625 C 223.414062 -193.785156 208.597656 -195.734375 191.234375 -195.734375 L 120.3125 -197.53125 L 120.3125 0 L 42.203125 0 Z M 42.203125 -629.390625 "/></g></g></g><g fill="#42b548" fill-opacity="1"><g transform="translate(2920.553381, 1114.486289)"><g><path d="M 27.828125 -226.25 C 27.828125 -259.175781 33.515625 -288.804688 44.890625 -315.140625 C 56.265625 -341.472656 73.023438 -364.519531 95.171875 -384.28125 C 117.921875 -404.03125 142.015625 -418.84375 167.453125 -428.71875 C 192.890625 -438.59375 219.675781 -443.53125 247.8125 -443.53125 C 249 -443.53125 250.34375 -443.53125 251.84375 -443.53125 C 253.34375 -443.53125 254.691406 -443.53125 255.890625 -443.53125 C 257.085938 -442.9375 258.429688 -442.640625 259.921875 -442.640625 C 261.421875 -442.640625 263.066406 -442.640625 264.859375 -442.640625 C 266.054688 -442.640625 267.40625 -442.640625 268.90625 -442.640625 C 270.40625 -442.640625 272.050781 -442.640625 273.84375 -442.640625 C 275.039062 -442.035156 276.382812 -441.734375 277.875 -441.734375 C 279.375 -441.734375 280.722656 -441.734375 281.921875 -441.734375 C 305.867188 -438.148438 328.765625 -431.117188 350.609375 -420.640625 C 372.453125 -410.160156 393.550781 -396.242188 413.90625 -378.890625 C 433.65625 -360.929688 448.617188 -338.484375 458.796875 -311.546875 C 468.972656 -284.617188 474.0625 -253.195312 474.0625 -217.28125 C 474.0625 -214.882812 474.0625 -212.488281 474.0625 -210.09375 C 474.0625 -207.695312 473.757812 -205.601562 473.15625 -203.8125 C 473.15625 -201.414062 473.003906 -199.019531 472.703125 -196.625 C 472.410156 -194.226562 472.265625 -191.832031 472.265625 -189.4375 C 471.671875 -184.65625 470.921875 -179.867188 470.015625 -175.078125 C 469.117188 -170.285156 468.070312 -165.5 466.875 -160.71875 C 461.488281 -139.164062 453.257812 -118.660156 442.1875 -99.203125 C 431.113281 -79.753906 416.898438 -61.351562 399.546875 -44 C 382.785156 -26.632812 362.734375 -13.757812 339.390625 -5.375 C 316.046875 3 290.003906 7.1875 261.265625 7.1875 C 220.566406 7.1875 185.398438 1.648438 155.765625 -9.421875 C 126.140625 -20.492188 102.050781 -37.40625 83.5 -60.15625 C 64.945312 -82.90625 51.03125 -108.046875 41.75 -135.578125 C 32.46875 -163.109375 27.828125 -192.738281 27.828125 -224.46875 Z M 113.125 -226.25 C 113.125 -221.46875 113.125 -217.128906 113.125 -213.234375 C 113.125 -209.347656 113.425781 -205.304688 114.03125 -201.109375 C 114.625 -196.921875 115.367188 -192.878906 116.265625 -188.984375 C 117.171875 -185.097656 117.921875 -181.0625 118.515625 -176.875 C 121.503906 -163.707031 126.289062 -150.835938 132.875 -138.265625 C 139.457031 -125.691406 147.539062 -113.722656 157.125 -102.359375 C 167.300781 -90.984375 179.867188 -82.601562 194.828125 -77.21875 C 209.796875 -71.832031 227.457031 -69.140625 247.8125 -69.140625 C 266.957031 -69.140625 284.910156 -71.832031 301.671875 -77.21875 C 318.429688 -82.601562 333.695312 -90.679688 347.46875 -101.453125 C 361.226562 -112.234375 371.550781 -127.945312 378.4375 -148.59375 C 385.320312 -169.238281 388.765625 -194.53125 388.765625 -224.46875 C 388.765625 -245.414062 385.769531 -264.414062 379.78125 -281.46875 C 373.800781 -298.53125 364.828125 -313.644531 352.859375 -326.8125 C 340.878906 -339.382812 326.0625 -348.960938 308.40625 -355.546875 C 290.75 -362.128906 270.550781 -365.421875 247.8125 -365.421875 C 226.257812 -365.421875 207.703125 -362.578125 192.140625 -356.890625 C 176.578125 -351.203125 163.707031 -342.375 153.53125 -330.40625 C 143.351562 -319.03125 135.117188 -306.757812 128.828125 -293.59375 C 122.546875 -280.425781 118.210938 -266.957031 115.828125 -253.1875 C 115.222656 -250.789062 114.617188 -248.394531 114.015625 -246 C 113.421875 -243.613281 113.125 -241.222656 113.125 -238.828125 C 113.125 -236.429688 113.125 -234.035156 113.125 -231.640625 C 113.125 -229.242188 113.125 -226.851562 113.125 -224.46875 Z M 113.125 -226.25 "/></g></g></g><g fill="#42b548" fill-opacity="1"><g transform="translate(3422.417272, 1114.486289)"><g><path d="M 56.5625 -629.390625 L 140.96875 -629.390625 L 140.96875 0 L 56.5625 0 Z M 56.5625 -629.390625 "/></g></g></g><g fill="#42b548" fill-opacity="1"><g transform="translate(3619.930808, 1114.486289)"><g><path d="M 84.390625 0 L 84.390625 -430.96875 L 162.515625 -430.96875 L 162.515625 0 Z M 78.109375 -530.625 C 78.109375 -537.207031 79.304688 -543.34375 81.703125 -549.03125 C 84.097656 -554.71875 87.988281 -559.65625 93.375 -563.84375 C 98.164062 -567.4375 103.40625 -570.28125 109.09375 -572.375 C 114.78125 -574.46875 120.613281 -575.515625 126.59375 -575.515625 C 133.175781 -575.515625 139.160156 -574.613281 144.546875 -572.8125 C 149.941406 -571.019531 155.332031 -568.03125 160.71875 -563.84375 C 166.101562 -559.65625 170.140625 -554.71875 172.828125 -549.03125 C 175.523438 -543.34375 176.875 -536.609375 176.875 -528.828125 C 176.875 -521.046875 175.523438 -514.160156 172.828125 -508.171875 C 170.140625 -502.191406 166.398438 -497.109375 161.609375 -492.921875 C 156.222656 -488.722656 150.835938 -485.726562 145.453125 -483.9375 C 140.066406 -482.144531 134.378906 -481.25 128.390625 -481.25 C 122.398438 -480.644531 116.410156 -481.238281 110.421875 -483.03125 C 104.441406 -484.832031 98.757812 -487.828125 93.375 -492.015625 C 87.988281 -496.203125 84.097656 -501.4375 81.703125 -507.71875 C 79.304688 -514.007812 78.109375 -521.046875 78.109375 -528.828125 Z M 78.109375 -530.625 "/></g></g></g><g fill="#42b548" fill-opacity="1"><g transform="translate(3867.720497, 1114.486289)"><g><path d="M 388.765625 0 L 388.765625 -247.8125 C 388.765625 -260.976562 386.21875 -273.992188 381.125 -286.859375 C 376.039062 -299.734375 368.410156 -311.851562 358.234375 -323.21875 C 348.054688 -335.195312 333.691406 -344.175781 315.140625 -350.15625 C 296.585938 -356.144531 274.144531 -359.140625 247.8125 -359.140625 C 243.613281 -359.140625 239.269531 -358.835938 234.78125 -358.234375 C 230.289062 -357.640625 225.351562 -356.742188 219.96875 -355.546875 C 214.582031 -354.941406 209.195312 -353.742188 203.8125 -351.953125 C 198.425781 -350.160156 193.039062 -347.765625 187.65625 -344.765625 C 178.070312 -340.578125 168.789062 -334.742188 159.8125 -327.265625 C 150.832031 -319.785156 142.15625 -310.957031 133.78125 -300.78125 C 126 -291.195312 119.710938 -279.375 114.921875 -265.3125 C 110.128906 -251.25 107.140625 -235.238281 105.953125 -217.28125 C 105.953125 -193.332031 109.242188 -172.53125 115.828125 -154.875 C 122.410156 -137.21875 132.285156 -122.40625 145.453125 -110.4375 C 159.210938 -99.0625 173.425781 -89.929688 188.09375 -83.046875 C 202.757812 -76.160156 218.175781 -71.820312 234.34375 -70.03125 C 234.9375 -70.03125 235.679688 -70.03125 236.578125 -70.03125 C 237.472656 -70.03125 238.222656 -70.03125 238.828125 -70.03125 C 240.023438 -69.4375 241.070312 -69.140625 241.96875 -69.140625 C 242.863281 -69.140625 243.613281 -69.140625 244.21875 -69.140625 C 245.414062 -69.140625 246.3125 -69.140625 246.90625 -69.140625 C 247.507812 -69.140625 248.40625 -69.140625 249.59375 -69.140625 C 250.195312 -69.140625 250.945312 -69.140625 251.84375 -69.140625 C 252.738281 -69.140625 253.488281 -69.140625 254.09375 -69.140625 C 261.269531 -69.140625 268 -69.585938 274.28125 -70.484375 C 280.570312 -71.378906 286.710938 -73.023438 292.703125 -75.421875 C 295.691406 -76.617188 298.53125 -77.816406 301.21875 -79.015625 C 303.914062 -80.210938 306.757812 -81.410156 309.75 -82.609375 C 312.144531 -84.398438 314.835938 -86.191406 317.828125 -87.984375 C 320.828125 -89.785156 323.523438 -91.882812 325.921875 -94.28125 C 328.910156 -96.070312 331.75 -98.3125 334.4375 -101 C 337.132812 -103.695312 339.976562 -106.242188 342.96875 -108.640625 C 345.96875 -111.628906 348.960938 -114.46875 351.953125 -117.15625 C 354.941406 -119.851562 357.9375 -122.703125 360.9375 -125.703125 L 360.9375 -27.828125 C 360.332031 -26.628906 359.878906 -25.878906 359.578125 -25.578125 C 359.285156 -25.285156 359.140625 -25.140625 359.140625 -25.140625 C 359.140625 -24.535156 359.140625 -24.234375 359.140625 -24.234375 C 351.953125 -19.453125 344.46875 -15.113281 336.6875 -11.21875 C 328.90625 -7.332031 320.828125 -3.890625 312.453125 -0.890625 C 304.066406 1.492188 293.890625 3.4375 281.921875 4.9375 C 269.953125 6.4375 256.1875 7.1875 240.625 7.1875 C 240.019531 7.1875 239.566406 7.1875 239.265625 7.1875 C 238.972656 7.1875 238.523438 7.1875 237.921875 7.1875 C 237.328125 7.1875 236.726562 7.1875 236.125 7.1875 C 235.53125 7.1875 235.234375 7.1875 235.234375 7.1875 C 234.640625 7.1875 234.039062 7.1875 233.4375 7.1875 C 232.84375 7.1875 232.242188 7.1875 231.640625 7.1875 C 231.046875 7.1875 230.597656 7.1875 230.296875 7.1875 C 229.992188 7.1875 229.546875 7.1875 228.953125 7.1875 C 201.421875 7.1875 175.832031 2.25 152.1875 -7.625 C 128.539062 -17.507812 106.84375 -32.625 87.09375 -52.96875 C 67.34375 -73.914062 52.523438 -98.003906 42.640625 -125.234375 C 32.765625 -152.472656 27.828125 -183.15625 27.828125 -217.28125 C 27.828125 -247.207031 32.613281 -275.039062 42.1875 -300.78125 C 51.769531 -326.519531 66.140625 -350.160156 85.296875 -371.703125 C 104.453125 -393.253906 128.09375 -409.414062 156.21875 -420.1875 C 184.351562 -430.96875 216.976562 -436.359375 254.09375 -436.359375 C 289.40625 -436.359375 320.828125 -431.566406 348.359375 -421.984375 C 375.898438 -412.410156 398.945312 -398.046875 417.5 -378.890625 C 436.65625 -359.734375 450.867188 -339.53125 460.140625 -318.28125 C 469.421875 -297.03125 474.0625 -275.035156 474.0625 -252.296875 L 474.0625 0 Z M 388.765625 0 "/></g></g></g><g fill="#42b548" fill-opacity="1"><g transform="translate(4369.584388, 1114.486289)"><g><path d="M 49.375 0 L 49.375 -297.1875 C 49.375 -315.738281 52.960938 -333.242188 60.140625 -349.703125 C 67.328125 -366.171875 78.40625 -381.285156 93.375 -395.046875 C 108.34375 -408.816406 125.703125 -419.144531 145.453125 -426.03125 C 165.203125 -432.914062 187.347656 -436.359375 211.890625 -436.359375 C 229.242188 -436.359375 244.503906 -435.007812 257.671875 -432.3125 C 270.847656 -429.613281 281.625 -425.875 290 -421.09375 C 298.382812 -416.300781 306.164062 -410.460938 313.34375 -403.578125 C 320.53125 -396.691406 326.816406 -388.757812 332.203125 -379.78125 C 337.585938 -386.96875 344.171875 -393.703125 351.953125 -399.984375 C 359.734375 -406.273438 369.007812 -412.410156 379.78125 -418.390625 C 390.5625 -424.378906 402.535156 -428.867188 415.703125 -431.859375 C 428.867188 -434.859375 443.535156 -436.359375 459.703125 -436.359375 C 480.046875 -436.359375 499.191406 -433.515625 517.140625 -427.828125 C 535.097656 -422.140625 551.859375 -413.3125 567.421875 -401.34375 C 582.984375 -389.96875 594.800781 -376.945312 602.875 -362.28125 C 610.957031 -347.613281 615.300781 -331.300781 615.90625 -313.34375 C 615.90625 -312.75 615.90625 -312.300781 615.90625 -312 C 615.90625 -311.695312 615.90625 -311.25 615.90625 -310.65625 C 615.90625 -310.050781 615.90625 -309.597656 615.90625 -309.296875 C 615.90625 -309.003906 615.90625 -308.554688 615.90625 -307.953125 C 615.300781 -307.359375 615 -306.910156 615 -306.609375 C 615 -306.316406 615 -305.867188 615 -305.265625 C 615 -304.671875 615 -304.222656 615 -303.921875 C 615 -303.617188 615 -303.171875 615 -302.578125 L 615 0 L 536.890625 0 L 536.890625 -275.640625 C 536.890625 -275.035156 536.890625 -274.882812 536.890625 -275.1875 C 536.890625 -275.488281 537.191406 -275.640625 537.796875 -275.640625 C 537.796875 -276.234375 537.796875 -276.679688 537.796875 -276.984375 C 537.796875 -277.285156 537.796875 -277.734375 537.796875 -278.328125 C 537.796875 -279.523438 537.796875 -280.570312 537.796875 -281.46875 C 537.796875 -282.375 537.796875 -283.125 537.796875 -283.71875 C 537.796875 -285.507812 537.644531 -287.300781 537.34375 -289.09375 C 537.039062 -290.894531 536.59375 -292.992188 536 -295.390625 C 535.394531 -297.179688 534.941406 -299.125 534.640625 -301.21875 C 534.347656 -303.320312 533.898438 -305.566406 533.296875 -307.953125 C 530.910156 -315.140625 527.320312 -322.023438 522.53125 -328.609375 C 517.738281 -335.191406 512.054688 -341.476562 505.484375 -347.46875 C 498.898438 -353.445312 491.71875 -357.929688 483.9375 -360.921875 C 476.15625 -363.921875 468.078125 -365.421875 459.703125 -365.421875 C 448.921875 -365.421875 438.890625 -363.472656 429.609375 -359.578125 C 420.335938 -355.691406 411.8125 -349.859375 404.03125 -342.078125 C 396.25 -334.296875 390.113281 -326.066406 385.625 -317.390625 C 381.132812 -308.710938 377.992188 -299.582031 376.203125 -290 C 375.597656 -288.800781 375.144531 -287.453125 374.84375 -285.953125 C 374.550781 -284.460938 374.40625 -283.117188 374.40625 -281.921875 C 374.40625 -280.128906 374.40625 -278.632812 374.40625 -277.4375 C 374.40625 -276.238281 374.40625 -275.039062 374.40625 -273.84375 L 374.40625 0 L 297.1875 0 L 297.1875 -268.453125 C 297.1875 -281.617188 295.390625 -293.890625 291.796875 -305.265625 C 288.203125 -316.640625 282.816406 -327.113281 275.640625 -336.6875 C 268.453125 -346.269531 259.472656 -353.453125 248.703125 -358.234375 C 237.929688 -363.023438 225.660156 -365.421875 211.890625 -365.421875 C 194.535156 -363.628906 180.171875 -359.738281 168.796875 -353.75 C 157.421875 -347.757812 149.039062 -339.679688 143.65625 -329.515625 C 138.269531 -319.335938 134.226562 -308.5625 131.53125 -297.1875 C 128.84375 -285.8125 127.5 -274.140625 127.5 -262.171875 C 127.5 -261.566406 127.5 -261.113281 127.5 -260.8125 C 127.5 -260.519531 127.5 -260.375 127.5 -260.375 C 127.5 -259.78125 127.5 -259.484375 127.5 -259.484375 L 127.5 0 Z M 49.375 0 "/></g></g></g></svg>